<svg xmlns="http://www.w3.org/2000/svg" xmlns:xlink="http://www.w3.org/1999/xlink" width="500" zoomAndPan="magnify" viewBox="0 0 375 374.999991" height="500" preserveAspectRatio="xMidYMid meet" version="1.0"><defs><clipPath id="aa06db4fa7"><path d="M 49.734375 99.097656 L 326.621094 99.097656 L 326.621094 331.5 L 49.734375 331.5 Z M 49.734375 99.097656 " clip-rule="nonzero"/></clipPath><clipPath id="ddd4b3451b"><path d="M 94.269531 99.097656 L 282.230469 99.097656 C 291.667969 99.097656 299.632812 106.105469 300.832031 115.460938 L 326.476562 315.132812 C 327.011719 319.273438 325.734375 323.441406 322.980469 326.570312 C 320.222656 329.703125 316.253906 331.5 312.082031 331.5 L 64.417969 331.5 C 60.246094 331.5 56.277344 329.703125 53.519531 326.570312 C 50.765625 323.441406 49.492188 319.273438 50.023438 315.132812 L 75.667969 115.460938 C 76.867188 106.105469 84.832031 99.097656 94.269531 99.097656 Z M 94.269531 99.097656 " clip-rule="nonzero"/></clipPath><clipPath id="1c1b5b4267"><path d="M 0.734375 0.0976562 L 277.621094 0.0976562 L 277.621094 232.5 L 0.734375 232.5 Z M 0.734375 0.0976562 " clip-rule="nonzero"/></clipPath><clipPath id="12b48e794a"><path d="M 45.269531 0.0976562 L 233.230469 0.0976562 C 242.667969 0.0976562 250.632812 7.105469 251.832031 16.460938 L 277.476562 216.132812 C 278.011719 220.273438 276.734375 224.441406 273.980469 227.570312 C 271.222656 230.703125 267.253906 232.5 263.082031 232.5 L 15.417969 232.5 C 11.246094 232.5 7.277344 230.703125 4.519531 227.570312 C 1.765625 224.441406 0.492188 220.273438 1.023438 216.132812 L 26.667969 16.460938 C 27.867188 7.105469 35.832031 0.0976562 45.269531 0.0976562 Z M 45.269531 0.0976562 " clip-rule="nonzero"/></clipPath><clipPath id="5a51f1475c"><rect x="0" width="278" y="0" height="233"/></clipPath><clipPath id="f687bc56c4"><path d="M 44 12.382812 L 331 12.382812 L 331 346.132812 L 44 346.132812 Z M 44 12.382812 " clip-rule="nonzero"/></clipPath></defs><rect x="-37.5" width="450" fill="#ffffff" y="-37.499999" height="449.999989" fill-opacity="1"/><rect x="-37.5" width="450" fill="#ffffff" y="-37.499999" height="449.999989" fill-opacity="1"/><g clip-path="url(#aa06db4fa7)"><g clip-path="url(#ddd4b3451b)"><g transform="matrix(1, 0, 0, 1, 49, 99)"><g clip-path="url(#5a51f1475c)"><g clip-path="url(#1c1b5b4267)"><g clip-path="url(#12b48e794a)"><path fill="#ffffff" d="M -1.082031 0.0976562 L 279.4375 0.0976562 L 279.4375 232.5 L -1.082031 232.5 Z M -1.082031 0.0976562 " fill-opacity="1" fill-rule="nonzero"/></g></g></g></g></g></g><g clip-path="url(#f687bc56c4)"><path fill="#000000" d="M 330.730469 315.621094 L 310.953125 100.550781 C 310.570312 96.378906 307.066406 93.1875 302.875 93.1875 L 246.292969 93.1875 L 246.292969 71.054688 C 246.292969 38.703125 219.960938 12.382812 187.59375 12.382812 C 155.226562 12.382812 128.894531 38.703125 128.894531 71.054688 L 128.894531 93.1875 L 72.3125 93.1875 C 68.121094 93.1875 64.621094 96.378906 64.234375 100.550781 L 44.457031 315.625 C 43.71875 323.660156 46.203125 331.058594 51.644531 337.019531 C 57.089844 342.984375 64.234375 346.132812 72.308594 346.132812 L 302.882812 346.132812 C 310.957031 346.132812 318.101562 342.984375 323.542969 337.019531 C 328.984375 331.058594 331.46875 323.660156 330.730469 315.621094 Z M 145.117188 71.054688 C 145.117188 47.644531 164.171875 28.597656 187.59375 28.597656 C 211.015625 28.597656 230.070312 47.644531 230.070312 71.054688 L 230.070312 93.1875 L 145.117188 93.1875 Z M 311.558594 326.09375 C 309.207031 328.667969 306.371094 329.917969 302.882812 329.917969 L 72.308594 329.917969 C 68.820312 329.917969 65.980469 328.667969 63.632812 326.09375 C 61.28125 323.515625 60.292969 320.578125 60.613281 317.105469 L 79.710938 109.402344 L 128.894531 109.402344 L 128.894531 126.984375 C 128.894531 131.460938 132.527344 135.089844 137.007812 135.089844 C 141.484375 135.089844 145.117188 131.460938 145.117188 126.984375 L 145.117188 109.402344 L 230.070312 109.402344 L 230.070312 126.984375 C 230.070312 131.460938 233.703125 135.089844 238.183594 135.089844 C 242.664062 135.089844 246.292969 131.460938 246.292969 126.984375 L 246.292969 109.402344 L 295.476562 109.402344 L 314.578125 317.105469 C 314.894531 320.578125 313.910156 323.515625 311.558594 326.09375 Z M 311.558594 326.09375 " fill-opacity="1" fill-rule="nonzero"/></g></svg>