<svg xmlns="http://www.w3.org/2000/svg" xmlns:xlink="http://www.w3.org/1999/xlink" width="500" zoomAndPan="magnify" viewBox="0 0 375 374.999991" height="500" preserveAspectRatio="xMidYMid meet" version="1.0"><defs><clipPath id="8f4604bc9b"><path d="M 27.636719 41 L 347.136719 41 L 347.136719 334 L 27.636719 334 Z M 27.636719 41 " clip-rule="nonzero"/></clipPath></defs><rect x="-37.5" width="450" fill="#ffffff" y="-37.499999" height="449.999989" fill-opacity="1"/><rect x="-37.5" width="450" fill="#ffffff" y="-37.499999" height="449.999989" fill-opacity="1"/><g clip-path="url(#8f4604bc9b)"><path fill="#000000" d="M 304.519531 41.933594 L 70.351562 41.933594 C 46.734375 41.933594 27.535156 61.136719 27.535156 84.75 L 27.535156 224.0625 C 27.535156 247.679688 46.734375 266.878906 70.351562 266.878906 L 144.222656 266.878906 C 145.761719 266.878906 147 268.121094 147 269.65625 L 147 322.394531 C 147 326.8125 149.628906 330.78125 153.699219 332.46875 C 155.085938 333.0625 156.476562 333.3125 157.914062 333.3125 C 160.742188 333.3125 163.523438 332.21875 165.605469 330.136719 L 228.859375 267.625 C 229.40625 267.128906 230.101562 266.828125 230.84375 266.828125 L 304.566406 266.828125 C 328.132812 266.828125 347.285156 247.628906 347.285156 224.015625 L 347.285156 84.652344 C 347.285156 61.085938 328.132812 41.933594 304.566406 41.933594 Z M 337.3125 224.015625 C 337.3125 242.121094 322.578125 256.90625 304.519531 256.90625 L 230.796875 256.90625 C 227.421875 256.90625 224.246094 258.195312 221.867188 260.578125 L 158.609375 323.089844 C 158.609375 323.089844 158.113281 323.585938 157.46875 323.339844 C 156.875 323.089844 156.875 322.59375 156.875 322.394531 L 156.875 269.65625 C 156.875 262.664062 151.167969 256.957031 144.171875 256.957031 L 70.300781 256.957031 C 52.191406 256.957031 37.410156 242.222656 37.410156 224.0625 L 37.410156 84.75 C 37.410156 66.640625 52.144531 51.855469 70.300781 51.855469 L 304.46875 51.855469 C 322.578125 51.855469 337.261719 66.59375 337.261719 84.652344 L 337.261719 224.015625 Z M 337.3125 224.015625 " fill-opacity="1" fill-rule="nonzero"/></g></svg>