<svg xmlns="http://www.w3.org/2000/svg" xmlns:xlink="http://www.w3.org/1999/xlink" width="500" zoomAndPan="magnify" viewBox="0 0 375 374.999991" height="500" preserveAspectRatio="xMidYMid meet" version="1.0"><defs><clipPath id="27aede1f81"><path d="M 37.5 170 L 174 170 L 174 339.96875 L 37.5 339.96875 Z M 37.5 170 " clip-rule="nonzero"/></clipPath><clipPath id="4f9daddeca"><path d="M 37.5 34.71875 L 174 34.71875 L 174 137 L 37.5 137 Z M 37.5 34.71875 " clip-rule="nonzero"/></clipPath><clipPath id="eb812f5584"><path d="M 207 238 L 342.75 238 L 342.75 339.96875 L 207 339.96875 Z M 207 238 " clip-rule="nonzero"/></clipPath><clipPath id="3fcac64400"><path d="M 207 34.71875 L 342.75 34.71875 L 342.75 205 L 207 205 Z M 207 34.71875 " clip-rule="nonzero"/></clipPath><clipPath id="d39abb15b3"><path d="M 37.5 170 L 174 170 L 174 339.96875 L 37.5 339.96875 Z M 37.5 170 " clip-rule="nonzero"/></clipPath><clipPath id="4c5cba8d63"><path d="M 37.5 34.71875 L 174 34.71875 L 174 137 L 37.5 137 Z M 37.5 34.71875 " clip-rule="nonzero"/></clipPath><clipPath id="772786dfda"><path d="M 207 238 L 342.75 238 L 342.75 339.96875 L 207 339.96875 Z M 207 238 " clip-rule="nonzero"/></clipPath><clipPath id="166de4e29e"><path d="M 207 34.71875 L 342.75 34.71875 L 342.75 205 L 207 205 Z M 207 34.71875 " clip-rule="nonzero"/></clipPath></defs><rect x="-37.5" width="450" fill="#ffffff" y="-37.499999" height="449.999989" fill-opacity="1"/><rect x="-37.5" width="450" fill="#ffffff" y="-37.499999" height="449.999989" fill-opacity="1"/><g clip-path="url(#27aede1f81)"><path fill="#ffffff" d="M 54.476562 170.519531 L 156.328125 170.519531 C 156.882812 170.519531 157.4375 170.546875 157.992188 170.601562 C 158.542969 170.65625 159.09375 170.738281 159.636719 170.84375 C 160.183594 170.953125 160.722656 171.089844 161.253906 171.25 C 161.785156 171.410156 162.308594 171.597656 162.824219 171.8125 C 163.335938 172.023438 163.839844 172.261719 164.328125 172.523438 C 164.820312 172.785156 165.296875 173.070312 165.757812 173.378906 C 166.21875 173.6875 166.667969 174.019531 167.097656 174.371094 C 167.527344 174.726562 167.9375 175.097656 168.332031 175.492188 C 168.722656 175.882812 169.097656 176.296875 169.449219 176.726562 C 169.800781 177.15625 170.132812 177.601562 170.441406 178.0625 C 170.75 178.527344 171.035156 179.003906 171.296875 179.492188 C 171.558594 179.984375 171.796875 180.484375 172.011719 181 C 172.222656 181.511719 172.410156 182.035156 172.570312 182.566406 C 172.734375 183.097656 172.867188 183.636719 172.976562 184.183594 C 173.085938 184.726562 173.164062 185.277344 173.21875 185.832031 C 173.273438 186.382812 173.300781 186.9375 173.300781 187.496094 L 173.300781 323.296875 C 173.300781 323.851562 173.273438 324.40625 173.21875 324.960938 C 173.164062 325.515625 173.085938 326.0625 172.976562 326.609375 C 172.867188 327.152344 172.734375 327.691406 172.570312 328.222656 C 172.410156 328.757812 172.222656 329.277344 172.011719 329.792969 C 171.796875 330.304688 171.558594 330.808594 171.296875 331.296875 C 171.035156 331.789062 170.75 332.265625 170.441406 332.726562 C 170.132812 333.191406 169.800781 333.636719 169.449219 334.066406 C 169.097656 334.496094 168.722656 334.90625 168.332031 335.300781 C 167.9375 335.691406 167.527344 336.066406 167.097656 336.417969 C 166.667969 336.769531 166.21875 337.101562 165.757812 337.410156 C 165.296875 337.71875 164.820312 338.003906 164.328125 338.265625 C 163.839844 338.53125 163.335938 338.765625 162.824219 338.980469 C 162.308594 339.191406 161.785156 339.378906 161.253906 339.539062 C 160.722656 339.703125 160.183594 339.835938 159.636719 339.945312 C 159.09375 340.054688 158.542969 340.136719 157.992188 340.191406 C 157.4375 340.246094 156.882812 340.273438 156.328125 340.273438 L 54.476562 340.273438 C 53.917969 340.273438 53.363281 340.246094 52.8125 340.191406 C 52.257812 340.136719 51.707031 340.054688 51.164062 339.945312 C 50.617188 339.835938 50.078125 339.703125 49.546875 339.539062 C 49.015625 339.378906 48.492188 339.191406 47.980469 338.980469 C 47.464844 338.765625 46.964844 338.53125 46.472656 338.265625 C 45.984375 338.003906 45.507812 337.71875 45.042969 337.410156 C 44.582031 337.101562 44.136719 336.769531 43.707031 336.417969 C 43.277344 336.066406 42.863281 335.691406 42.472656 335.300781 C 42.078125 334.90625 41.707031 334.496094 41.351562 334.066406 C 41 333.636719 40.667969 333.191406 40.359375 332.726562 C 40.050781 332.265625 39.765625 331.789062 39.503906 331.296875 C 39.242188 330.808594 39.003906 330.304688 38.792969 329.792969 C 38.578125 329.277344 38.390625 328.757812 38.230469 328.222656 C 38.070312 327.691406 37.933594 327.152344 37.828125 326.609375 C 37.71875 326.0625 37.636719 325.515625 37.582031 324.960938 C 37.527344 324.40625 37.5 323.851562 37.5 323.296875 L 37.5 187.496094 C 37.5 186.9375 37.527344 186.382812 37.582031 185.832031 C 37.636719 185.277344 37.71875 184.726562 37.828125 184.183594 C 37.933594 183.636719 38.070312 183.097656 38.230469 182.566406 C 38.390625 182.035156 38.578125 181.511719 38.792969 181 C 39.003906 180.484375 39.242188 179.984375 39.503906 179.492188 C 39.765625 179.003906 40.050781 178.527344 40.359375 178.0625 C 40.667969 177.601562 41 177.15625 41.351562 176.726562 C 41.707031 176.296875 42.078125 175.882812 42.472656 175.492188 C 42.863281 175.097656 43.277344 174.726562 43.707031 174.371094 C 44.136719 174.019531 44.582031 173.6875 45.042969 173.378906 C 45.507812 173.070312 45.984375 172.785156 46.472656 172.523438 C 46.964844 172.261719 47.464844 172.023438 47.980469 171.8125 C 48.492188 171.597656 49.015625 171.410156 49.546875 171.25 C 50.078125 171.089844 50.617188 170.953125 51.164062 170.84375 C 51.707031 170.738281 52.257812 170.65625 52.8125 170.601562 C 53.363281 170.546875 53.917969 170.519531 54.476562 170.519531 Z M 54.476562 170.519531 " fill-opacity="1" fill-rule="nonzero"/></g><g clip-path="url(#4f9daddeca)"><path fill="#ffffff" d="M 54.476562 34.71875 L 156.328125 34.71875 C 156.882812 34.71875 157.4375 34.746094 157.992188 34.800781 C 158.542969 34.855469 159.09375 34.933594 159.636719 35.042969 C 160.183594 35.152344 160.722656 35.285156 161.253906 35.449219 C 161.785156 35.609375 162.308594 35.796875 162.824219 36.007812 C 163.335938 36.222656 163.839844 36.460938 164.328125 36.722656 C 164.820312 36.984375 165.296875 37.269531 165.757812 37.578125 C 166.21875 37.886719 166.667969 38.21875 167.097656 38.570312 C 167.527344 38.921875 167.9375 39.296875 168.332031 39.6875 C 168.722656 40.082031 169.097656 40.492188 169.449219 40.921875 C 169.800781 41.351562 170.132812 41.800781 170.441406 42.261719 C 170.75 42.722656 171.035156 43.199219 171.296875 43.691406 C 171.558594 44.179688 171.796875 44.683594 172.011719 45.195312 C 172.222656 45.710938 172.410156 46.234375 172.570312 46.765625 C 172.734375 47.296875 172.867188 47.835938 172.976562 48.378906 C 173.085938 48.925781 173.164062 49.476562 173.21875 50.027344 C 173.273438 50.582031 173.300781 51.136719 173.300781 51.691406 L 173.300781 119.59375 C 173.300781 120.148438 173.273438 120.703125 173.21875 121.257812 C 173.164062 121.8125 173.085938 122.359375 172.976562 122.90625 C 172.867188 123.449219 172.734375 123.988281 172.570312 124.519531 C 172.410156 125.054688 172.222656 125.574219 172.011719 126.089844 C 171.796875 126.601562 171.558594 127.105469 171.296875 127.59375 C 171.035156 128.085938 170.75 128.5625 170.441406 129.023438 C 170.132812 129.488281 169.800781 129.933594 169.449219 130.363281 C 169.097656 130.792969 168.722656 131.203125 168.332031 131.597656 C 167.9375 131.988281 167.527344 132.363281 167.097656 132.714844 C 166.667969 133.066406 166.21875 133.398438 165.757812 133.707031 C 165.296875 134.015625 164.820312 134.300781 164.328125 134.5625 C 163.839844 134.828125 163.335938 135.0625 162.824219 135.277344 C 162.308594 135.488281 161.785156 135.675781 161.253906 135.835938 C 160.722656 136 160.183594 136.132812 159.636719 136.242188 C 159.09375 136.351562 158.542969 136.433594 157.992188 136.488281 C 157.4375 136.542969 156.882812 136.570312 156.328125 136.570312 L 54.476562 136.570312 C 53.917969 136.570312 53.363281 136.542969 52.8125 136.488281 C 52.257812 136.433594 51.707031 136.351562 51.164062 136.242188 C 50.617188 136.132812 50.078125 136 49.546875 135.835938 C 49.015625 135.675781 48.492188 135.488281 47.980469 135.277344 C 47.464844 135.0625 46.964844 134.828125 46.472656 134.5625 C 45.984375 134.300781 45.507812 134.015625 45.042969 133.707031 C 44.582031 133.398438 44.136719 133.066406 43.707031 132.714844 C 43.277344 132.363281 42.863281 131.988281 42.472656 131.597656 C 42.078125 131.203125 41.707031 130.792969 41.351562 130.363281 C 41 129.933594 40.667969 129.488281 40.359375 129.023438 C 40.050781 128.5625 39.765625 128.085938 39.503906 127.59375 C 39.242188 127.105469 39.003906 126.601562 38.792969 126.089844 C 38.578125 125.574219 38.390625 125.054688 38.230469 124.519531 C 38.070312 123.988281 37.933594 123.449219 37.828125 122.90625 C 37.71875 122.359375 37.636719 121.8125 37.582031 121.257812 C 37.527344 120.703125 37.5 120.148438 37.5 119.59375 L 37.5 51.691406 C 37.5 51.136719 37.527344 50.582031 37.582031 50.027344 C 37.636719 49.476562 37.71875 48.925781 37.828125 48.378906 C 37.933594 47.835938 38.070312 47.296875 38.230469 46.765625 C 38.390625 46.234375 38.578125 45.710938 38.792969 45.195312 C 39.003906 44.683594 39.242188 44.179688 39.503906 43.691406 C 39.765625 43.199219 40.050781 42.722656 40.359375 42.261719 C 40.667969 41.800781 41 41.351562 41.351562 40.921875 C 41.707031 40.492188 42.078125 40.082031 42.472656 39.6875 C 42.863281 39.296875 43.277344 38.921875 43.707031 38.570312 C 44.136719 38.21875 44.582031 37.886719 45.042969 37.578125 C 45.507812 37.269531 45.984375 36.984375 46.472656 36.722656 C 46.964844 36.460938 47.464844 36.222656 47.980469 36.007812 C 48.492188 35.796875 49.015625 35.609375 49.546875 35.449219 C 50.078125 35.285156 50.617188 35.152344 51.164062 35.042969 C 51.707031 34.933594 52.257812 34.855469 52.8125 34.800781 C 53.363281 34.746094 53.917969 34.71875 54.476562 34.71875 Z M 54.476562 34.71875 " fill-opacity="1" fill-rule="nonzero"/></g><g clip-path="url(#eb812f5584)"><path fill="#ffffff" d="M 224.226562 238.421875 L 326.078125 238.421875 C 326.636719 238.421875 327.191406 238.449219 327.742188 238.503906 C 328.296875 238.558594 328.847656 238.636719 329.390625 238.746094 C 329.9375 238.855469 330.476562 238.988281 331.007812 239.152344 C 331.539062 239.3125 332.0625 239.5 332.574219 239.710938 C 333.089844 239.925781 333.589844 240.164062 334.082031 240.425781 C 334.570312 240.6875 335.046875 240.972656 335.511719 241.28125 C 335.972656 241.589844 336.417969 241.921875 336.847656 242.273438 C 337.277344 242.625 337.691406 243 338.082031 243.390625 C 338.476562 243.785156 338.847656 244.195312 339.203125 244.625 C 339.554688 245.054688 339.886719 245.503906 340.195312 245.964844 C 340.503906 246.425781 340.789062 246.902344 341.050781 247.394531 C 341.3125 247.882812 341.550781 248.386719 341.761719 248.898438 C 341.976562 249.414062 342.164062 249.9375 342.324219 250.46875 C 342.484375 251 342.621094 251.539062 342.726562 252.082031 C 342.835938 252.628906 342.917969 253.179688 342.972656 253.730469 C 343.027344 254.285156 343.054688 254.839844 343.054688 255.394531 L 343.054688 323.296875 C 343.054688 323.851562 343.027344 324.40625 342.972656 324.960938 C 342.917969 325.515625 342.835938 326.0625 342.726562 326.609375 C 342.621094 327.152344 342.484375 327.691406 342.324219 328.222656 C 342.164062 328.757812 341.976562 329.277344 341.761719 329.792969 C 341.550781 330.304688 341.3125 330.808594 341.050781 331.296875 C 340.789062 331.789062 340.503906 332.265625 340.195312 332.726562 C 339.886719 333.191406 339.554688 333.636719 339.203125 334.066406 C 338.847656 334.496094 338.476562 334.90625 338.082031 335.300781 C 337.691406 335.691406 337.277344 336.066406 336.847656 336.417969 C 336.417969 336.769531 335.972656 337.101562 335.511719 337.410156 C 335.046875 337.71875 334.570312 338.003906 334.082031 338.265625 C 333.589844 338.53125 333.089844 338.765625 332.574219 338.980469 C 332.0625 339.191406 331.539062 339.378906 331.007812 339.539062 C 330.476562 339.703125 329.9375 339.835938 329.390625 339.945312 C 328.847656 340.054688 328.296875 340.136719 327.742188 340.191406 C 327.191406 340.246094 326.636719 340.273438 326.078125 340.273438 L 224.226562 340.273438 C 223.671875 340.273438 223.117188 340.246094 222.5625 340.191406 C 222.011719 340.136719 221.460938 340.054688 220.917969 339.945312 C 220.371094 339.835938 219.832031 339.703125 219.300781 339.539062 C 218.769531 339.378906 218.246094 339.191406 217.730469 338.980469 C 217.21875 338.765625 216.714844 338.53125 216.226562 338.265625 C 215.734375 338.003906 215.257812 337.71875 214.796875 337.410156 C 214.335938 337.101562 213.886719 336.769531 213.457031 336.417969 C 213.027344 336.066406 212.617188 335.691406 212.222656 335.300781 C 211.832031 334.90625 211.457031 334.496094 211.105469 334.066406 C 210.753906 333.636719 210.421875 333.191406 210.113281 332.726562 C 209.804688 332.265625 209.519531 331.789062 209.257812 331.296875 C 208.996094 330.808594 208.757812 330.304688 208.542969 329.792969 C 208.332031 329.277344 208.144531 328.757812 207.984375 328.222656 C 207.820312 327.691406 207.6875 327.152344 207.578125 326.609375 C 207.46875 326.0625 207.390625 325.515625 207.335938 324.960938 C 207.28125 324.40625 207.253906 323.851562 207.253906 323.296875 L 207.253906 255.394531 C 207.253906 254.839844 207.28125 254.285156 207.335938 253.730469 C 207.390625 253.179688 207.46875 252.628906 207.578125 252.082031 C 207.6875 251.539062 207.820312 251 207.984375 250.46875 C 208.144531 249.9375 208.332031 249.414062 208.542969 248.898438 C 208.757812 248.386719 208.996094 247.882812 209.257812 247.394531 C 209.519531 246.902344 209.804688 246.425781 210.113281 245.964844 C 210.421875 245.503906 210.753906 245.054688 211.105469 244.625 C 211.457031 244.195312 211.832031 243.785156 212.222656 243.390625 C 212.617188 243 213.027344 242.625 213.457031 242.273438 C 213.886719 241.921875 214.335938 241.589844 214.796875 241.28125 C 215.257812 240.972656 215.734375 240.6875 216.226562 240.425781 C 216.714844 240.164062 217.21875 239.925781 217.730469 239.710938 C 218.246094 239.5 218.769531 239.3125 219.300781 239.152344 C 219.832031 238.988281 220.371094 238.855469 220.917969 238.746094 C 221.460938 238.636719 222.011719 238.558594 222.5625 238.503906 C 223.117188 238.449219 223.671875 238.421875 224.226562 238.421875 Z M 224.226562 238.421875 " fill-opacity="1" fill-rule="nonzero"/></g><g clip-path="url(#3fcac64400)"><path fill="#ffffff" d="M 224.226562 34.71875 L 326.078125 34.71875 C 326.636719 34.71875 327.191406 34.746094 327.742188 34.800781 C 328.296875 34.855469 328.847656 34.933594 329.390625 35.042969 C 329.9375 35.152344 330.476562 35.285156 331.007812 35.449219 C 331.539062 35.609375 332.0625 35.796875 332.574219 36.007812 C 333.089844 36.222656 333.589844 36.460938 334.082031 36.722656 C 334.570312 36.984375 335.046875 37.269531 335.511719 37.578125 C 335.972656 37.886719 336.417969 38.21875 336.847656 38.570312 C 337.277344 38.921875 337.691406 39.296875 338.082031 39.6875 C 338.476562 40.082031 338.847656 40.492188 339.203125 40.921875 C 339.554688 41.351562 339.886719 41.800781 340.195312 42.261719 C 340.503906 42.722656 340.789062 43.199219 341.050781 43.691406 C 341.3125 44.179688 341.550781 44.683594 341.761719 45.195312 C 341.976562 45.710938 342.164062 46.234375 342.324219 46.765625 C 342.484375 47.296875 342.621094 47.835938 342.726562 48.378906 C 342.835938 48.925781 342.917969 49.476562 342.972656 50.027344 C 343.027344 50.582031 343.054688 51.136719 343.054688 51.691406 L 343.054688 187.496094 C 343.054688 188.050781 343.027344 188.605469 342.972656 189.160156 C 342.917969 189.710938 342.835938 190.261719 342.726562 190.804688 C 342.621094 191.351562 342.484375 191.890625 342.324219 192.421875 C 342.164062 192.953125 341.976562 193.476562 341.761719 193.992188 C 341.550781 194.503906 341.3125 195.007812 341.050781 195.496094 C 340.789062 195.988281 340.503906 196.464844 340.195312 196.925781 C 339.886719 197.386719 339.554688 197.832031 339.203125 198.261719 C 338.847656 198.695312 338.476562 199.105469 338.082031 199.496094 C 337.691406 199.890625 337.277344 200.265625 336.847656 200.617188 C 336.417969 200.96875 335.972656 201.300781 335.511719 201.609375 C 335.046875 201.917969 334.570312 202.203125 334.082031 202.464844 C 333.589844 202.726562 333.089844 202.964844 332.574219 203.175781 C 332.0625 203.390625 331.539062 203.578125 331.007812 203.738281 C 330.476562 203.898438 329.9375 204.035156 329.390625 204.144531 C 328.847656 204.253906 328.296875 204.332031 327.742188 204.386719 C 327.191406 204.441406 326.636719 204.46875 326.078125 204.46875 L 224.226562 204.46875 C 223.671875 204.46875 223.117188 204.441406 222.5625 204.386719 C 222.011719 204.332031 221.460938 204.253906 220.917969 204.144531 C 220.371094 204.035156 219.832031 203.898438 219.300781 203.738281 C 218.769531 203.578125 218.246094 203.390625 217.730469 203.175781 C 217.21875 202.964844 216.714844 202.726562 216.226562 202.464844 C 215.734375 202.203125 215.257812 201.917969 214.796875 201.609375 C 214.335938 201.300781 213.886719 200.96875 213.457031 200.617188 C 213.027344 200.265625 212.617188 199.890625 212.222656 199.496094 C 211.832031 199.105469 211.457031 198.695312 211.105469 198.261719 C 210.753906 197.832031 210.421875 197.386719 210.113281 196.925781 C 209.804688 196.464844 209.519531 195.988281 209.257812 195.496094 C 208.996094 195.007812 208.757812 194.503906 208.542969 193.992188 C 208.332031 193.476562 208.144531 192.953125 207.984375 192.421875 C 207.820312 191.890625 207.6875 191.351562 207.578125 190.804688 C 207.46875 190.261719 207.390625 189.710938 207.335938 189.160156 C 207.28125 188.605469 207.253906 188.050781 207.253906 187.496094 L 207.253906 51.691406 C 207.253906 51.136719 207.28125 50.582031 207.335938 50.027344 C 207.390625 49.476562 207.46875 48.925781 207.578125 48.378906 C 207.6875 47.835938 207.820312 47.296875 207.984375 46.765625 C 208.144531 46.234375 208.332031 45.710938 208.542969 45.195312 C 208.757812 44.683594 208.996094 44.179688 209.257812 43.691406 C 209.519531 43.199219 209.804688 42.722656 210.113281 42.261719 C 210.421875 41.800781 210.753906 41.351562 211.105469 40.921875 C 211.457031 40.492188 211.832031 40.082031 212.222656 39.6875 C 212.617188 39.296875 213.027344 38.921875 213.457031 38.570312 C 213.886719 38.21875 214.335938 37.886719 214.796875 37.578125 C 215.257812 37.269531 215.734375 36.984375 216.226562 36.722656 C 216.714844 36.460938 217.21875 36.222656 217.730469 36.007812 C 218.246094 35.796875 218.769531 35.609375 219.300781 35.449219 C 219.832031 35.285156 220.371094 35.152344 220.917969 35.042969 C 221.460938 34.933594 222.011719 34.855469 222.5625 34.800781 C 223.117188 34.746094 223.671875 34.71875 224.226562 34.71875 Z M 224.226562 34.71875 " fill-opacity="1" fill-rule="nonzero"/></g><g clip-path="url(#d39abb15b3)"><path fill="#000000" d="M 156.207031 170.382812 L 54.457031 170.382812 C 45.132812 170.382812 37.5 178.015625 37.5 187.34375 L 37.5 323.007812 C 37.5 332.335938 45.132812 339.96875 54.457031 339.96875 L 156.207031 339.96875 C 165.535156 339.96875 173.167969 332.335938 173.167969 323.007812 L 173.167969 187.34375 C 173.167969 178.015625 165.535156 170.382812 156.207031 170.382812 Z M 161.859375 323.007812 C 161.859375 326.117188 159.316406 328.660156 156.207031 328.660156 L 54.457031 328.660156 C 51.347656 328.660156 48.804688 326.117188 48.804688 323.007812 L 48.804688 187.34375 C 48.804688 184.234375 51.347656 181.691406 54.457031 181.691406 L 156.207031 181.691406 C 159.316406 181.691406 161.859375 184.234375 161.859375 187.34375 Z M 161.859375 323.007812 " fill-opacity="1" fill-rule="nonzero"/></g><g clip-path="url(#4c5cba8d63)"><path fill="#000000" d="M 156.207031 34.71875 L 54.457031 34.71875 C 45.132812 34.71875 37.5 42.347656 37.5 51.675781 L 37.5 119.507812 C 37.5 128.835938 45.132812 136.46875 54.457031 136.46875 L 156.207031 136.46875 C 165.535156 136.46875 173.167969 128.835938 173.167969 119.507812 L 173.167969 51.675781 C 173.167969 42.347656 165.535156 34.71875 156.207031 34.71875 Z M 161.859375 119.507812 C 161.859375 122.617188 159.316406 125.160156 156.207031 125.160156 L 54.457031 125.160156 C 51.347656 125.160156 48.804688 122.617188 48.804688 119.507812 L 48.804688 51.675781 C 48.804688 48.566406 51.347656 46.023438 54.457031 46.023438 L 156.207031 46.023438 C 159.316406 46.023438 161.859375 48.566406 161.859375 51.675781 Z M 161.859375 119.507812 " fill-opacity="1" fill-rule="nonzero"/></g><g clip-path="url(#772786dfda)"><path fill="#000000" d="M 325.792969 238.21875 L 224.042969 238.21875 C 214.714844 238.21875 207.082031 245.847656 207.082031 255.175781 L 207.082031 323.007812 C 207.082031 332.335938 214.714844 339.96875 224.042969 339.96875 L 325.792969 339.96875 C 335.117188 339.96875 342.75 332.335938 342.75 323.007812 L 342.75 255.175781 C 342.75 245.847656 335.117188 238.21875 325.792969 238.21875 Z M 331.445312 323.007812 C 331.445312 326.117188 328.902344 328.660156 325.792969 328.660156 L 224.042969 328.660156 C 220.933594 328.660156 218.390625 326.117188 218.390625 323.007812 L 218.390625 255.175781 C 218.390625 252.066406 220.933594 249.523438 224.042969 249.523438 L 325.792969 249.523438 C 328.902344 249.523438 331.445312 252.066406 331.445312 255.175781 Z M 331.445312 323.007812 " fill-opacity="1" fill-rule="nonzero"/></g><g clip-path="url(#166de4e29e)"><path fill="#000000" d="M 325.792969 34.71875 L 224.042969 34.71875 C 214.714844 34.71875 207.082031 42.347656 207.082031 51.675781 L 207.082031 187.34375 C 207.082031 196.667969 214.714844 204.300781 224.042969 204.300781 L 325.792969 204.300781 C 335.117188 204.300781 342.75 196.667969 342.75 187.34375 L 342.75 51.675781 C 342.75 42.347656 335.117188 34.71875 325.792969 34.71875 Z M 331.445312 187.34375 C 331.445312 190.453125 328.902344 192.996094 325.792969 192.996094 L 224.042969 192.996094 C 220.933594 192.996094 218.390625 190.453125 218.390625 187.34375 L 218.390625 51.675781 C 218.390625 48.566406 220.933594 46.023438 224.042969 46.023438 L 325.792969 46.023438 C 328.902344 46.023438 331.445312 48.566406 331.445312 51.675781 Z M 331.445312 187.34375 " fill-opacity="1" fill-rule="nonzero"/></g></svg>