<svg xmlns="http://www.w3.org/2000/svg" xmlns:xlink="http://www.w3.org/1999/xlink" width="500" zoomAndPan="magnify" viewBox="0 0 375 374.999991" height="500" preserveAspectRatio="xMidYMid meet" version="1.0"><defs><clipPath id="9b669587ed"><path d="M 58 28.046875 L 316.695312 28.046875 L 316.695312 346.796875 L 58 346.796875 Z M 58 28.046875 " clip-rule="nonzero"/></clipPath></defs><rect x="-37.5" width="450" fill="#ffffff" y="-37.499999" height="449.999989" fill-opacity="1"/><rect x="-37.5" width="450" fill="#ffffff" y="-37.499999" height="449.999989" fill-opacity="1"/><g clip-path="url(#9b669587ed)"><path fill="#040606" d="M 81.203125 164.507812 L 81.203125 244.800781 C 81.203125 250.648438 79.816406 256.519531 77.203125 261.761719 L 59.265625 297.664062 C 58.089844 300.019531 58.214844 302.820312 59.601562 305.050781 C 60.976562 307.28125 63.414062 308.65625 66.039062 308.65625 L 142.523438 308.65625 C 146.152344 330.136719 164.828125 346.578125 187.320312 346.578125 C 199.414062 346.578125 210.839844 341.871094 219.542969 333.246094 C 226.277344 326.433594 230.582031 317.882812 232.128906 308.65625 L 308.589844 308.65625 C 311.226562 308.65625 313.667969 307.28125 315.039062 305.050781 C 316.425781 302.820312 316.550781 300.019531 315.375 297.664062 L 297.4375 261.761719 C 294.828125 256.519531 293.441406 250.648438 293.441406 244.800781 L 293.441406 164.507812 C 293.441406 136.160156 282.398438 109.496094 262.332031 89.425781 C 249.71875 76.789062 234.246094 67.621094 217.164062 62.566406 C 217.363281 61.15625 217.636719 59.753906 217.636719 58.292969 C 217.636719 41.566406 204.042969 27.953125 187.320312 27.953125 C 170.597656 27.953125 157.007812 41.566406 157.007812 58.292969 C 157.007812 59.769531 157.277344 61.167969 157.476562 62.59375 C 112.839844 75.710938 81.203125 117.328125 81.203125 164.507812 Z M 208.820312 322.53125 C 203.042969 328.253906 195.390625 331.414062 187.320312 331.414062 C 173.222656 331.414062 161.339844 321.726562 157.960938 308.65625 L 216.695312 308.65625 C 215.359375 313.847656 212.671875 318.628906 208.820312 322.53125 Z M 187.320312 43.128906 C 195.675781 43.128906 202.484375 49.929688 202.484375 58.292969 C 202.484375 58.652344 202.472656 59.011719 202.445312 59.371094 C 201.53125 59.234375 200.613281 59.183594 199.710938 59.074219 C 198.871094 58.976562 198.039062 58.886719 197.210938 58.8125 C 193.90625 58.503906 190.601562 58.292969 187.320312 58.292969 C 184.027344 58.292969 180.710938 58.503906 177.40625 58.8125 C 176.601562 58.886719 175.796875 58.976562 174.992188 59.074219 C 174.0625 59.171875 173.121094 59.234375 172.195312 59.371094 C 172.167969 59.011719 172.15625 58.652344 172.15625 58.292969 C 172.15625 49.929688 178.964844 43.128906 187.320312 43.128906 Z M 168.308594 75.441406 C 177.777344 73.484375 187.371094 73 196.839844 73.964844 C 200.007812 74.300781 203.164062 74.785156 206.308594 75.425781 C 223.527344 79.15625 239.1875 87.707031 251.613281 100.144531 C 268.808594 117.351562 278.277344 140.210938 278.277344 164.507812 L 278.277344 244.800781 C 278.277344 253.003906 280.21875 261.214844 283.871094 268.550781 L 296.335938 293.476562 L 78.304688 293.476562 L 90.769531 268.550781 C 94.421875 261.214844 96.363281 253.003906 96.363281 244.800781 L 96.363281 164.507812 C 96.363281 121.761719 126.640625 84.296875 168.308594 75.441406 " fill-opacity="1" fill-rule="nonzero"/></g></svg>