<svg xmlns="http://www.w3.org/2000/svg" xmlns:xlink="http://www.w3.org/1999/xlink" width="500" zoomAndPan="magnify" viewBox="0 0 375 374.999991" height="500" preserveAspectRatio="xMidYMid meet" version="1.0"><defs><clipPath id="5e5bbdbf39"><path d="M 53.65625 53.65625 L 321.34375 53.65625 L 321.34375 321.34375 L 53.65625 321.34375 Z M 53.65625 53.65625 " clip-rule="nonzero"/></clipPath><clipPath id="9b1fa5caf4"><path d="M 187.5 53.65625 C 113.582031 53.65625 53.65625 113.582031 53.65625 187.5 C 53.65625 261.417969 113.582031 321.34375 187.5 321.34375 C 261.417969 321.34375 321.34375 261.417969 321.34375 187.5 C 321.34375 113.582031 261.417969 53.65625 187.5 53.65625 Z M 187.5 53.65625 " clip-rule="nonzero"/></clipPath><clipPath id="19113fd699"><path d="M 0.65625 0.65625 L 268.34375 0.65625 L 268.34375 268.34375 L 0.65625 268.34375 Z M 0.65625 0.65625 " clip-rule="nonzero"/></clipPath><clipPath id="1ac43a26d2"><path d="M 134.5 0.65625 C 60.582031 0.65625 0.65625 60.582031 0.65625 134.5 C 0.65625 208.417969 60.582031 268.34375 134.5 268.34375 C 208.417969 268.34375 268.34375 208.417969 268.34375 134.5 C 268.34375 60.582031 208.417969 0.65625 134.5 0.65625 Z M 134.5 0.65625 " clip-rule="nonzero"/></clipPath><clipPath id="7be4621e31"><rect x="0" width="269" y="0" height="269"/></clipPath><clipPath id="c54fb09795"><path d="M 45.972656 45.972656 L 328.722656 45.972656 L 328.722656 328.722656 L 45.972656 328.722656 Z M 45.972656 45.972656 " clip-rule="nonzero"/></clipPath></defs><rect x="-37.5" width="450" fill="#ffffff" y="-37.499999" height="449.999989" fill-opacity="1"/><rect x="-37.5" width="450" fill="#ffffff" y="-37.499999" height="449.999989" fill-opacity="1"/><g clip-path="url(#5e5bbdbf39)"><g clip-path="url(#9b1fa5caf4)"><g transform="matrix(1, 0, 0, 1, 53, 53)"><g clip-path="url(#7be4621e31)"><g clip-path="url(#19113fd699)"><g clip-path="url(#1ac43a26d2)"><path fill="#ffffff" d="M 0.65625 0.65625 L 268.34375 0.65625 L 268.34375 268.34375 L 0.65625 268.34375 Z M 0.65625 0.65625 " fill-opacity="1" fill-rule="nonzero"/></g></g></g></g></g></g><g clip-path="url(#c54fb09795)"><path fill="#000000" d="M 187.347656 229.027344 C 151.023438 229.027344 121.472656 199.476562 121.472656 163.152344 C 121.472656 126.832031 151.023438 97.28125 187.347656 97.28125 C 223.667969 97.28125 253.21875 126.832031 253.21875 163.152344 C 253.21875 199.476562 223.667969 229.027344 187.347656 229.027344 Z M 187.347656 106.351562 C 156.027344 106.351562 130.546875 131.832031 130.546875 163.152344 C 130.546875 194.472656 156.027344 219.953125 187.347656 219.953125 C 218.667969 219.953125 244.148438 194.472656 244.148438 163.152344 C 244.148438 131.832031 218.667969 106.351562 187.347656 106.351562 Z M 287.3125 87.378906 C 260.609375 60.679688 225.109375 45.972656 187.347656 45.972656 C 149.585938 45.972656 114.082031 60.679688 87.378906 87.378906 C 60.679688 114.082031 45.972656 149.585938 45.972656 187.347656 C 45.972656 225.109375 60.679688 260.609375 87.378906 287.3125 C 114.082031 314.011719 149.585938 328.71875 187.347656 328.71875 C 225.109375 328.71875 260.609375 314.011719 287.3125 287.3125 C 314.011719 260.609375 328.71875 225.109375 328.71875 187.347656 C 328.71875 149.585938 314.011719 114.082031 287.3125 87.378906 Z M 93.796875 93.796875 C 118.785156 68.808594 152.007812 55.046875 187.347656 55.046875 C 222.683594 55.046875 255.90625 68.808594 280.894531 93.796875 C 305.882812 118.785156 319.644531 152.007812 319.644531 187.347656 C 319.644531 216.722656 310.128906 244.632812 292.5625 267.570312 C 278.585938 248.027344 256.265625 236.480469 232.027344 236.480469 L 142.664062 236.480469 C 118.425781 236.480469 96.105469 248.027344 82.128906 267.570312 C 64.5625 244.632812 55.046875 216.722656 55.046875 187.347656 C 55.046875 152.007812 68.808594 118.785156 93.796875 93.796875 Z M 187.347656 319.644531 C 152.007812 319.644531 118.785156 305.882812 93.796875 280.894531 C 91.832031 278.933594 89.949219 276.917969 88.128906 274.855469 C 100.28125 256.484375 120.5625 245.550781 142.664062 245.550781 L 232.027344 245.550781 C 254.128906 245.550781 274.410156 256.484375 286.566406 274.855469 C 284.742188 276.917969 282.859375 278.933594 280.894531 280.894531 C 255.90625 305.882812 222.683594 319.644531 187.347656 319.644531 Z M 187.347656 319.644531 " fill-opacity="1" fill-rule="nonzero"/></g></svg>